<svg width="26" height="28" viewBox="0 0 26 28" fill="none" xmlns="http://www.w3.org/2000/svg">
<path d="M2.16675 7.5C2.16675 5.61438 2.16675 4.67157 2.75253 4.08579C3.33832 3.5 4.28113 3.5 6.16675 3.5H19.8334C21.719 3.5 22.6618 3.5 23.2476 4.08579C23.8334 4.67157 23.8334 5.61438 23.8334 7.5V8.5C23.8334 9.44281 23.8334 9.91421 23.5405 10.2071C23.2476 10.5 22.7762 10.5 21.8334 10.5H4.16675C3.22394 10.5 2.75253 10.5 2.45964 10.2071C2.16675 9.91421 2.16675 9.44281 2.16675 8.5V7.5Z" fill="#FABB18"/>
<path class="navbar__link-svg--color" d="M5.21193 23.6213C4.33325 22.7426 4.33325 21.3284 4.33325 18.5V12.8333H21.6666V18.5C21.6666 21.3284 21.6666 22.7426 20.7879 23.6213C19.9092 24.5 18.495 24.5 15.6666 24.5H10.3333C7.50482 24.5 6.09061 24.5 5.21193 23.6213ZM10.8333 17.6667C10.281 17.6667 9.83325 18.1144 9.83325 18.6667C9.83325 19.2189 10.281 19.6667 10.8333 19.6667H15.1666C15.7189 19.6667 16.1666 19.2189 16.1666 18.6667C16.1666 18.1144 15.7189 17.6667 15.1666 17.6667H10.8333Z"/>
</svg>
