<svg width="28" height="28" viewBox="0 0 28 28" fill="none" xmlns="http://www.w3.org/2000/svg">
<path d="M12.7324 25.0144L12.591 24.0245L12.7324 25.0144ZM8.85628 24.8715L8.20108 25.627L8.85628 24.8715ZM23.7664 22.697L23.0109 22.0418L23.7664 22.697ZM19.3485 3.93072L19.2071 4.92067L19.3485 3.93072ZM23.7664 5.30293L23.0109 5.95813L23.7664 5.30293ZM12.591 3.9755L19.2071 4.92067L19.49 2.94077L12.8738 1.9956L12.591 3.9755ZM23.5 9.87042V18.1295H25.5V9.87042H23.5ZM19.2071 23.0793L12.591 24.0245L12.8738 26.0044L19.49 25.0592L19.2071 23.0793ZM9.16669 8.32057V6.94535H7.16669V8.32057H9.16669ZM9.16669 21.0546V19.9103H7.16669V21.0546H9.16669ZM12.591 24.0245C11.4988 24.1805 10.7848 24.2801 10.2545 24.2811C9.75253 24.282 9.59716 24.1904 9.51149 24.1161L8.20108 25.627C8.805 26.1508 9.52551 26.2824 10.2581 26.2811C10.9624 26.2798 11.8416 26.1518 12.8738 26.0044L12.591 24.0245ZM7.16669 21.0546C7.16669 22.0973 7.16433 22.9857 7.26268 23.6831C7.36499 24.4086 7.59716 25.1032 8.20108 25.627L9.51149 24.1161C9.42581 24.0418 9.31319 23.9009 9.24309 23.4039C9.16904 22.8788 9.16669 22.1578 9.16669 21.0546H7.16669ZM23.5 18.1295C23.5 19.3961 23.4982 20.2523 23.4162 20.9012C23.3378 21.5221 23.1989 21.8251 23.0109 22.0418L24.5218 23.3522C25.0675 22.7231 25.2955 21.9829 25.4004 21.1518C25.5019 20.3486 25.5 19.344 25.5 18.1295H23.5ZM19.49 25.0592C20.6922 24.8874 21.687 24.7472 22.4678 24.5332C23.2757 24.3117 23.9762 23.9814 24.5218 23.3522L23.0109 22.0418C22.8229 22.2586 22.5426 22.4389 21.939 22.6043C21.3083 22.7772 20.461 22.9002 19.2071 23.0793L19.49 25.0592ZM19.2071 4.92067C20.461 5.09979 21.3083 5.22272 21.939 5.39562C22.5426 5.56107 22.8229 5.74137 23.0109 5.95813L24.5218 4.64773C23.9762 4.01859 23.2757 3.68823 22.4678 3.46677C21.687 3.25276 20.6922 3.11252 19.49 2.94077L19.2071 4.92067ZM25.5 9.87042C25.5 8.65594 25.5019 7.65132 25.4004 6.84816C25.2955 6.01706 25.0675 5.27686 24.5218 4.64773L23.0109 5.95813C23.1989 6.17488 23.3378 6.4779 23.4162 7.0988C23.4982 7.74765 23.5 8.60383 23.5 9.87042H25.5ZM12.8738 1.9956C11.8416 1.84815 10.9624 1.72017 10.2581 1.71891C9.52551 1.71759 8.805 1.8492 8.20108 2.37297L9.51149 3.88388C9.59716 3.80957 9.75253 3.718 10.2545 3.7189C10.7848 3.71985 11.4988 3.81949 12.591 3.9755L12.8738 1.9956ZM9.16669 6.94535C9.16669 5.84214 9.16904 5.12117 9.24309 4.5961C9.31319 4.09904 9.42581 3.95819 9.51149 3.88388L8.20108 2.37297C7.59716 2.89674 7.36499 3.59141 7.26268 4.31681C7.16433 5.01421 7.16669 5.90266 7.16669 6.94535H9.16669Z" fill="black"/>
<path d="M18.6667 14L19.4476 13.3753L19.9473 14L19.4476 14.6247L18.6667 14ZM4.66669 15C4.1144 15 3.66669 14.5523 3.66669 14C3.66669 13.4477 4.1144 13 4.66669 13V15ZM14.7809 7.54199L19.4476 13.3753L17.8858 14.6247L13.2192 8.79138L14.7809 7.54199ZM19.4476 14.6247L14.7809 20.458L13.2192 19.2087L17.8858 13.3753L19.4476 14.6247ZM18.6667 15H4.66669V13H18.6667V15Z" fill="black"/>
</svg>
