<svg width="24" height="28" viewBox="0 0 24 28" fill="none" xmlns="http://www.w3.org/2000/svg">
<path opacity="0.3" fill-rule="evenodd" clip-rule="evenodd" d="M5.99975 2.54547H2C0.895431 2.54547 0 3.4409 0 4.54547V26C0 27.1046 0.89543 28 2 28H22C23.1046 28 24 27.1046 24 26V4.54547C24 3.4409 23.1046 2.54547 22 2.54547H17.9997V3.18184C17.9997 4.2362 16.9924 5.09093 15.7497 5.09093H8.24975C7.0071 5.09093 5.99975 4.2362 5.99975 3.18184V2.54547Z" fill="black"/>
<path fill-rule="evenodd" clip-rule="evenodd" d="M13.5003 1.2727C13.5002 0.569807 12.8287 0 12.0003 0C11.1718 0 10.5003 0.569807 10.5003 1.2727H8C7.72386 1.2727 7.5 1.49656 7.5 1.7727V3.31816C7.5 3.5943 7.72386 3.81816 8 3.81816H16C16.2761 3.81816 16.5 3.5943 16.5 3.31816V1.7727C16.5 1.49656 16.2761 1.2727 16 1.2727H13.5003Z" fill="#FABB18"/>
<rect x="4.5" y="11.4545" width="7.5" height="2.54545" rx="1.27273" fill="#FABB18"/>
<rect x="4.5" y="16.5454" width="13.5" height="2.54545" rx="1.27273" fill="#FABB18"/>
</svg>
