<svg width="28" height="28" viewBox="0 0 28 28" fill="none" xmlns="http://www.w3.org/2000/svg">
<path d="M25.158 9.73716L24.4999 8.75L4.08325 20.4167L4.89763 21.5202C5.15235 21.8653 5.59884 22.0096 6.00735 21.8787L8.29104 21.147C8.581 21.0541 8.8975 21.0984 9.15085 21.2673L10.1394 21.9264C10.3694 22.0797 10.5257 22.3214 10.5711 22.594L10.944 24.8311C11.0244 25.3133 11.4415 25.6667 11.9304 25.6667H16.0695C16.5583 25.6667 16.9755 25.3133 17.0559 24.8311L17.4287 22.594C17.4741 22.3214 17.6304 22.0797 17.8604 21.9264L18.843 21.2713C19.0997 21.1001 19.4212 21.0571 19.7139 21.1547L22.003 21.9177C22.4412 22.0638 22.9224 21.8907 23.1672 21.499L25.1948 18.2548C25.4638 17.8245 25.3678 17.261 24.9715 16.9439L23.1252 15.4669C22.888 15.2771 22.7499 14.9898 22.7499 14.686V13.314C22.7499 13.0102 22.888 12.7229 23.1252 12.5331L24.9507 11.0727C25.3557 10.7487 25.4458 10.1688 25.158 9.73716Z" fill="#B3B3B3"/>
<path d="M24.4999 8.74998L4.08325 20.4166L2.7829 18.2494C2.52538 17.8202 2.62485 17.2667 3.0157 16.954L4.87461 15.4669C5.11183 15.2771 5.24992 14.9898 5.24992 14.686V13.3139C5.24992 13.0102 5.11183 12.7228 4.87461 12.5331L3.02832 11.056C2.63206 10.739 2.53606 10.1755 2.80501 9.74516L4.83263 6.50098C5.07744 6.10929 5.55866 5.93623 5.99686 6.08229L8.28593 6.84532C8.57869 6.9429 8.9001 6.89986 9.15686 6.72868L10.1394 6.07363C10.3694 5.9203 10.5257 5.67862 10.5711 5.40598L10.944 3.16891C11.0243 2.68673 11.4415 2.33331 11.9304 2.33331H16.0695C16.5583 2.33331 16.9755 2.68673 17.0559 3.16891L17.4287 5.40598C17.4741 5.67862 17.6304 5.9203 17.8604 6.07363L18.843 6.72868C19.0997 6.89986 19.4211 6.9429 19.7139 6.84532L21.9889 6.08698C22.4336 5.93877 22.9215 6.11926 23.1626 6.52117L24.4999 8.74998Z" fill="#FABB18"/>
<circle cx="14" cy="14" r="3.5" fill="white"/>
</svg>
