<svg class="navbar__link-svg" width="28" height="28" viewBox="0 0 28 28" fill="none" xmlns="http://www.w3.org/2000/svg">
<path fill-rule="evenodd" clip-rule="evenodd" d="M24.5001 16.3333V14V14C24.5001 10.7001 24.5001 9.05023 23.475 8.02511C22.5659 7.11608 21.1656 7.01313 18.5593 7.00147L15.1162 10.4445L15.0597 10.5012L15.0597 10.5012C14.8301 10.7322 14.5823 10.9814 14.2556 11.1168C13.9289 11.2521 13.5774 11.2511 13.2517 11.2501L13.1717 11.25H7.00008H1.16675L1.16676 16.3333C1.16676 19.6331 1.16676 21.2831 2.19189 22.3082C3.21702 23.3333 4.86693 23.3333 8.16676 23.3333H17.5001C20.7999 23.3333 22.4498 23.3333 23.475 22.3082C24.5001 21.2831 24.5001 19.6332 24.5001 16.3333V16.3333ZM1.16675 9.74998H7.00008H13.1717C13.387 9.74998 13.5074 9.74948 13.5976 9.74262C13.6378 9.73956 13.6598 9.73597 13.671 9.73363C13.6738 9.73306 13.6758 9.73257 13.6774 9.73218C13.6788 9.73181 13.6797 9.73154 13.6803 9.73138L13.6815 9.73095L13.6828 9.73035L13.6842 9.72953L13.6909 9.72542C13.7005 9.71913 13.7185 9.70613 13.7491 9.67986C13.8178 9.62089 13.9033 9.53615 14.0555 9.38386L16.4394 6.99998H16.3334H15.4422C14.097 6.99998 13.6735 6.67423 13.4099 5.88739C13.3715 5.7728 13.3524 5.71551 13.3389 5.68307C13.3254 5.65063 13.3077 5.6152 13.2723 5.54436L12.9566 4.91298C12.329 3.65784 12.0152 3.03028 11.4514 2.68179C10.8875 2.33331 10.1859 2.33331 8.7826 2.33331H5.83343C3.63354 2.33331 2.5336 2.33331 1.85018 3.01673C1.1668 3.70012 1.16679 4.08328 1.16676 6.99957L1.16676 6.99998L1.16675 9.64575L1.16675 9.74998Z" fill="#B3B3B3"/>
<path d="M1 5.69309V9.38473V10H13.9231L14.5385 9.38473L17 6.92364H15.7692C14.7628 6.83103 14.3239 6.60314 13.9231 5.69309L12.6923 3.232C12.1567 2.25271 11.449 1.97706 9.61538 2.00146H4.07692C2.88039 2.05419 1.10649 2.17631 1 4.46255V5.69309Z" fill="#FABB18"/>
</svg>
